<svg width="409" height="180" viewBox="0 0 409 180" fill="none" xmlns="http://www.w3.org/2000/svg">
<path d="M0 0L250 10.5V126.5L0 117V0Z" fill="#0662A8"/>
<path d="M43.4946 90V37.5H67.4946C72.2946 37.5 76.4196 38.275 79.8696 39.825C83.3696 41.375 86.0696 43.625 87.9696 46.575C89.8696 49.475 90.8196 52.925 90.8196 56.925C90.8196 60.875 89.8696 64.3 87.9696 67.2C86.0696 70.1 83.3696 72.35 79.8696 73.95C76.4196 75.5 72.2946 76.275 67.4946 76.275H51.7446L58.3446 69.825V90H43.4946ZM58.3446 71.4L51.7446 64.575H66.5946C69.6946 64.575 71.9946 63.9 73.4946 62.55C75.0446 61.2 75.8196 59.325 75.8196 56.925C75.8196 54.475 75.0446 52.575 73.4946 51.225C71.9946 49.875 69.6946 49.2 66.5946 49.2H51.7446L58.3446 42.375V71.4ZM98.0601 90V37.5H122.06C126.86 37.5 130.985 38.275 134.435 39.825C137.935 41.375 140.635 43.625 142.535 46.575C144.435 49.475 145.385 52.925 145.385 56.925C145.385 60.875 144.435 64.3 142.535 67.2C140.635 70.05 137.935 72.25 134.435 73.8C130.985 75.3 126.86 76.05 122.06 76.05H106.31L112.91 69.825V90H98.0601ZM130.535 90L117.485 70.875H133.31L146.435 90H130.535ZM112.91 71.4L106.31 64.575H121.16C124.26 64.575 126.56 63.9 128.06 62.55C129.61 61.2 130.385 59.325 130.385 56.925C130.385 54.475 129.61 52.575 128.06 51.225C126.56 49.875 124.26 49.2 121.16 49.2H106.31L112.91 42.375V71.4ZM180.053 91.05C175.853 91.05 171.978 90.375 168.428 89.025C164.878 87.675 161.778 85.775 159.128 83.325C156.528 80.825 154.503 77.925 153.053 74.625C151.603 71.325 150.878 67.7 150.878 63.75C150.878 59.8 151.603 56.175 153.053 52.875C154.503 49.575 156.528 46.7 159.128 44.25C161.778 41.75 164.878 39.825 168.428 38.475C171.978 37.125 175.853 36.45 180.053 36.45C184.303 36.45 188.178 37.125 191.678 38.475C195.228 39.825 198.303 41.75 200.903 44.25C203.503 46.7 205.528 49.575 206.978 52.875C208.478 56.175 209.228 59.8 209.228 63.75C209.228 67.7 208.478 71.35 206.978 74.7C205.528 78 203.503 80.875 200.903 83.325C198.303 85.775 195.228 87.675 191.678 89.025C188.178 90.375 184.303 91.05 180.053 91.05ZM180.053 78.75C182.053 78.75 183.903 78.4 185.603 77.7C187.353 77 188.853 76 190.103 74.7C191.403 73.35 192.403 71.75 193.103 69.9C193.853 68.05 194.228 66 194.228 63.75C194.228 61.45 193.853 59.4 193.103 57.6C192.403 55.75 191.403 54.175 190.103 52.875C188.853 51.525 187.353 50.5 185.603 49.8C183.903 49.1 182.053 48.75 180.053 48.75C178.053 48.75 176.178 49.1 174.428 49.8C172.728 50.5 171.228 51.525 169.928 52.875C168.678 54.175 167.678 55.75 166.928 57.6C166.228 59.4 165.878 61.45 165.878 63.75C165.878 66 166.228 68.05 166.928 69.9C167.678 71.75 168.678 73.35 169.928 74.7C171.228 76 172.728 77 174.428 77.7C176.178 78.4 178.053 78.75 180.053 78.75Z" fill="#F2F2F2"/>
<path d="M285.246 88.25V36.31H296.166V88.25H285.246ZM329.401 88.25V80.9L328.701 79.29V66.13C328.701 63.7967 327.977 61.9767 326.531 60.67C325.131 59.3633 322.961 58.71 320.021 58.71C318.014 58.71 316.031 59.0367 314.071 59.69C312.157 60.2967 310.524 61.1367 309.171 62.21L305.251 54.58C307.304 53.1333 309.777 52.0133 312.671 51.22C315.564 50.4267 318.504 50.03 321.491 50.03C327.231 50.03 331.687 51.3833 334.861 54.09C338.034 56.7967 339.621 61.02 339.621 66.76V88.25H329.401ZM317.921 88.81C314.981 88.81 312.461 88.32 310.361 87.34C308.261 86.3133 306.651 84.9367 305.531 83.21C304.411 81.4833 303.851 79.5467 303.851 77.4C303.851 75.16 304.387 73.2 305.461 71.52C306.581 69.84 308.331 68.5333 310.711 67.6C313.091 66.62 316.194 66.13 320.021 66.13H330.031V72.5H321.211C318.644 72.5 316.871 72.92 315.891 73.76C314.957 74.6 314.491 75.65 314.491 76.91C314.491 78.31 315.027 79.43 316.101 80.27C317.221 81.0633 318.737 81.46 320.651 81.46C322.471 81.46 324.104 81.04 325.551 80.2C326.997 79.3133 328.047 78.03 328.701 76.35L330.381 81.39C329.587 83.8167 328.141 85.66 326.041 86.92C323.941 88.18 321.234 88.81 317.921 88.81ZM371.764 88.81C368.451 88.81 365.604 88.11 363.224 86.71C360.844 85.31 359.024 83.1867 357.764 80.34C356.504 77.4467 355.874 73.8067 355.874 69.42C355.874 64.9867 356.527 61.3467 357.834 58.5C359.187 55.6533 361.054 53.53 363.434 52.13C365.814 50.73 368.591 50.03 371.764 50.03C375.311 50.03 378.484 50.8233 381.284 52.41C384.131 53.9967 386.371 56.2367 388.004 59.13C389.684 62.0233 390.524 65.4533 390.524 69.42C390.524 73.34 389.684 76.7467 388.004 79.64C386.371 82.5333 384.131 84.7967 381.284 86.43C378.484 88.0167 375.311 88.81 371.764 88.81ZM349.504 88.25V36.31H360.424V58.22L359.724 69.35L359.934 80.55V88.25H349.504ZM369.874 79.85C371.694 79.85 373.304 79.43 374.704 78.59C376.151 77.75 377.294 76.56 378.134 75.02C379.021 73.4333 379.464 71.5667 379.464 69.42C379.464 67.2267 379.021 65.36 378.134 63.82C377.294 62.28 376.151 61.09 374.704 60.25C373.304 59.41 371.694 58.99 369.874 58.99C368.054 58.99 366.421 59.41 364.974 60.25C363.527 61.09 362.384 62.28 361.544 63.82C360.704 65.36 360.284 67.2267 360.284 69.42C360.284 71.5667 360.704 73.4333 361.544 75.02C362.384 76.56 363.527 77.75 364.974 78.59C366.421 79.43 368.054 79.85 369.874 79.85Z" fill="#073C7E"/>
<path d="M157.413 176.791L151.598 113.524L404.061 118.98L407.933 178.991L157.413 176.791Z" fill="#F2F2F2" stroke="#0662A8" stroke-width="2"/>
<path d="M197.668 164V130.4H203.908V164H197.668ZM219.812 164V135.68H208.676V130.4H237.188V135.68H226.052V164H219.812ZM256.955 164.48C254.395 164.48 252.011 164.064 249.803 163.232C247.627 162.368 245.723 161.168 244.091 159.632C242.491 158.064 241.243 156.224 240.347 154.112C239.451 152 239.003 149.696 239.003 147.2C239.003 144.704 239.451 142.4 240.347 140.288C241.243 138.176 242.507 136.352 244.139 134.816C245.771 133.248 247.675 132.048 249.851 131.216C252.027 130.352 254.411 129.92 257.003 129.92C259.755 129.92 262.267 130.4 264.539 131.36C266.811 132.288 268.731 133.68 270.299 135.536L266.267 139.328C265.051 138.016 263.691 137.04 262.187 136.4C260.683 135.728 259.051 135.392 257.291 135.392C255.531 135.392 253.915 135.68 252.443 136.256C251.003 136.832 249.739 137.648 248.651 138.704C247.595 139.76 246.763 141.008 246.155 142.448C245.579 143.888 245.291 145.472 245.291 147.2C245.291 148.928 245.579 150.512 246.155 151.952C246.763 153.392 247.595 154.64 248.651 155.696C249.739 156.752 251.003 157.568 252.443 158.144C253.915 158.72 255.531 159.008 257.291 159.008C259.051 159.008 260.683 158.688 262.187 158.048C263.691 157.376 265.051 156.368 266.267 155.024L270.299 158.864C268.731 160.688 266.811 162.08 264.539 163.04C262.267 164 259.739 164.48 256.955 164.48ZM276.278 164V130.4H282.518V158.72H300.086V164H276.278ZM315.05 164.336C312.874 164.336 310.954 163.936 309.29 163.136C307.626 162.304 306.33 161.056 305.402 159.392C304.474 157.696 304.01 155.568 304.01 153.008V138.368H310.01V152.192C310.01 154.496 310.522 156.224 311.546 157.376C312.602 158.496 314.09 159.056 316.01 159.056C317.418 159.056 318.634 158.768 319.658 158.192C320.714 157.616 321.53 156.752 322.106 155.6C322.714 154.448 323.018 153.024 323.018 151.328V138.368H329.018V164H323.306V157.088L324.314 159.2C323.45 160.864 322.186 162.144 320.522 163.04C318.858 163.904 317.034 164.336 315.05 164.336ZM351.082 164.336C348.906 164.336 346.97 163.856 345.273 162.896C343.578 161.936 342.234 160.496 341.242 158.576C340.282 156.624 339.802 154.16 339.802 151.184C339.802 148.176 340.298 145.712 341.29 143.792C342.314 141.872 343.674 140.448 345.37 139.52C347.098 138.56 349.002 138.08 351.082 138.08C353.61 138.08 355.834 138.624 357.754 139.712C359.706 140.8 361.242 142.32 362.362 144.272C363.514 146.224 364.09 148.528 364.09 151.184C364.09 153.84 363.514 156.144 362.362 158.096C361.242 160.048 359.706 161.584 357.754 162.704C355.834 163.792 353.61 164.336 351.082 164.336ZM336.874 164V128.384H342.874V144.32L342.394 151.136L342.586 157.952V164H336.874ZM350.41 159.2C351.85 159.2 353.13 158.88 354.25 158.24C355.402 157.6 356.314 156.672 356.986 155.456C357.658 154.24 357.994 152.816 357.994 151.184C357.994 149.52 357.658 148.096 356.986 146.912C356.314 145.696 355.402 144.768 354.25 144.128C353.13 143.488 351.85 143.168 350.41 143.168C348.97 143.168 347.674 143.488 346.522 144.128C345.37 144.768 344.458 145.696 343.786 146.912C343.114 148.096 342.778 149.52 342.778 151.184C342.778 152.816 343.114 154.24 343.786 155.456C344.458 156.672 345.37 157.6 346.522 158.24C347.674 158.88 348.97 159.2 350.41 159.2Z" fill="#0662A8"/>
</svg>
